<?xml version="1.0" encoding="UTF-8"?>
<svg version="1.1" xmlns="http://www.w3.org/2000/svg" width="180" height="180">
<path d="M0 0 C59.4 0 118.8 0 180 0 C180 59.4 180 118.8 180 180 C120.6 180 61.2 180 0 180 C0 120.6 0 61.2 0 0 Z " fill="#FDFDFD" transform="translate(0,0)"/>
<path d="M0 0 C0.66 0 1.32 0 2 0 C2.09796875 0.94359375 2.1959375 1.8871875 2.296875 2.859375 C4.17180091 18.95787681 9.30289636 32.8803892 19 46 C19 46.66 19 47.32 19 48 C19.66 48 20.32 48 21 48 C22.4453125 49.50390625 22.4453125 49.50390625 24.125 51.5625 C37.60849483 67.21543697 56.48200133 76.23120701 77 78 C77.66 78.66 78.32 79.32 79 80 C78.12859375 80.09796875 77.2571875 80.1959375 76.359375 80.296875 C59.66035468 82.39328881 44.84648669 87.93712042 32 99 C31.15308594 99.71414062 30.30617188 100.42828125 29.43359375 101.1640625 C24.21390868 105.69141975 19.79090647 110.22131163 16 116 C15.49855469 116.74765625 14.99710937 117.4953125 14.48046875 118.265625 C6.90349179 130.1586015 3.08692383 143.0416097 2 157 C1.34 157 0.68 157 0 157 C-0.02578125 156.35675781 -0.0515625 155.71351563 -0.078125 155.05078125 C-1.32817892 135.13514947 -11.20585981 115.75023686 -25.625 102.03515625 C-40.82470145 89.01041208 -57.80428189 81.13283525 -78 80 C-78 79.34 -78 78.68 -78 78 C-76.54980469 77.83564453 -76.54980469 77.83564453 -75.0703125 77.66796875 C-56.85351688 75.4494877 -40.71732136 69.58624398 -27 57 C-26.24460938 56.33613281 -25.48921875 55.67226562 -24.7109375 54.98828125 C-16.00405476 46.89476998 -9.02051409 36.1973196 -5 25 C-4.64164062 24.00484375 -4.28328125 23.0096875 -3.9140625 21.984375 C-1.46132019 14.6435434 -0.27850106 7.72840439 0 0 Z " fill="#4E86D2" transform="translate(89,11)"/>
<path d="M0 0 C0.66 0 1.32 0 2 0 C4.11161731 15.74487472 4.11161731 15.74487472 5 23 C4.01 22.01 4.01 22.01 3 21 C3 19.68 3 18.36 3 17 C1.68 17 0.36 17 -1 17 C-1.02578125 17.70125 -1.0515625 18.4025 -1.078125 19.125 C-1.55299603 27.0682972 -3.60466559 32.15035541 -7.75 38.8125 C-9.59060408 43.50604041 -9.23931864 48.01862675 -9 53 C-9.94875 52.979375 -10.8975 52.95875 -11.875 52.9375 C-14.90666283 52.77448174 -14.90666283 52.77448174 -17 54 C-17.40729228 56.32156597 -17.74438677 58.6568787 -18 61 C-19.65 61 -21.3 61 -23 61 C-24.25664978 63.90600261 -25 65.79604584 -25 69 C-25.81984375 68.96519531 -26.6396875 68.93039063 -27.484375 68.89453125 C-29.10085937 68.85392578 -29.10085937 68.85392578 -30.75 68.8125 C-31.81734375 68.77769531 -32.8846875 68.74289063 -33.984375 68.70703125 C-37.31488541 69.0305912 -38.65757124 69.65188574 -41 72 C-41 72.66 -41 73.32 -41 74 C-41.66 74 -42.32 74 -43 74 C-43 74.66 -43 75.32 -43 76 C-44.32 76 -45.64 76 -47 76 C-48.67225729 76.30404678 -50.34080104 76.63128912 -52 77 C-51.34 77.33 -50.68 77.66 -50 78 C-50.66 79.65 -51.32 81.3 -52 83 C-48.7 83.66 -45.4 84.32 -42 85 C-42 85.66 -42 86.32 -42 87 C-41.34 87 -40.68 87 -40 87 C-40 86.34 -40 85.68 -40 85 C-37.69 85 -35.38 85 -33 85 C-32.505 89.455 -32.505 89.455 -32 94 C-29.03 93.505 -29.03 93.505 -26 93 C-25.01 95.64 -24.02 98.28 -23 101 C-22.34 101 -21.68 101 -21 101 C-21 101.66 -21 102.32 -21 103 C-20.38769531 103.07347656 -19.77539062 103.14695312 -19.14453125 103.22265625 C-17 104 -17 104 -15.69921875 105.99609375 C-15.36535156 106.80175781 -15.03148437 107.60742188 -14.6875 108.4375 C-14.34074219 109.24058594 -13.99398437 110.04367188 -13.63671875 110.87109375 C-13 113 -13 113 -14 115 C-15.12535156 113.7315625 -15.12535156 113.7315625 -16.2734375 112.4375 C-22.3948709 105.61980889 -28.5116373 99.35430712 -36 94 C-36.97839844 93.29810547 -36.97839844 93.29810547 -37.9765625 92.58203125 C-49.87266111 84.62682127 -63.84788754 80.79383223 -78 80 C-78 79.34 -78 78.68 -78 78 C-76.54980469 77.83564453 -76.54980469 77.83564453 -75.0703125 77.66796875 C-56.85351688 75.4494877 -40.71732136 69.58624398 -27 57 C-26.24460938 56.33613281 -25.48921875 55.67226562 -24.7109375 54.98828125 C-16.00405476 46.89476998 -9.02051409 36.1973196 -5 25 C-4.64164062 24.00484375 -4.28328125 23.0096875 -3.9140625 21.984375 C-1.46132019 14.6435434 -0.27850106 7.72840439 0 0 Z M-14 49 C-14 49.66 -14 50.32 -14 51 C-13.34 50.67 -12.68 50.34 -12 50 C-12.66 49.67 -13.32 49.34 -14 49 Z " fill="#7975C7" transform="translate(89,11)"/>
<path d="M0 0 C0.33 0.99 0.66 1.98 1 3 C-0.98 3.66 -2.96 4.32 -5 5 C-4.34 5.33 -3.68 5.66 -3 6 C-3.66 7.65 -4.32 9.3 -5 11 C-1.7 11.66 1.6 12.32 5 13 C5 13.66 5 14.32 5 15 C5.66 15 6.32 15 7 15 C7 14.34 7 13.68 7 13 C9.31 13 11.62 13 14 13 C14.495 17.455 14.495 17.455 15 22 C16.98 21.67 18.96 21.34 21 21 C21.99 23.64 22.98 26.28 24 29 C24.66 29 25.32 29 26 29 C26 29.66 26 30.32 26 31 C26.61230469 31.07347656 27.22460938 31.14695312 27.85546875 31.22265625 C30 32 30 32 31.30078125 33.99609375 C31.63464844 34.80175781 31.96851563 35.60742188 32.3125 36.4375 C32.65925781 37.24058594 33.00601563 38.04367188 33.36328125 38.87109375 C34 41 34 41 33 43 C31.87464844 41.7315625 31.87464844 41.7315625 30.7265625 40.4375 C24.6051291 33.61980889 18.4883627 27.35430712 11 22 C10.02160156 21.29810547 10.02160156 21.29810547 9.0234375 20.58203125 C-2.87266111 12.62682127 -16.84788754 8.79383223 -31 8 C-31 7.34 -31 6.68 -31 6 C-29.54980469 5.83564453 -29.54980469 5.83564453 -28.0703125 5.66796875 C-18.83486036 4.54325527 -8.8872675 0 0 0 Z " fill="#896CB2" transform="translate(42,83)"/>
<path d="M0 0 C4.05579876 1.09616183 7.48744922 2.76473263 11.125 4.8125 C21.64831526 10.66833121 32.05092521 14.81539548 44.1171875 15.65625 C46 16 46 16 48 18 C46.71029297 18.16435547 46.71029297 18.16435547 45.39453125 18.33203125 C37.98179238 19.32632447 30.81398299 20.62387248 23.546875 22.4140625 C21 23 21 23 19 23 C19.33 21.68 19.66 20.36 20 19 C21.32 19 22.64 19 24 19 C23.34 18.01 22.68 17.02 22 16 C21.67 16.33 21.34 16.66 21 17 C19.33382885 17.04063832 17.66611905 17.042721 16 17 C16 16.34 16 15.68 16 15 C14.35 15 12.7 15 11 15 C11.66 13.35 12.32 11.7 13 10 C11.35 11.32 9.7 12.64 8 14 C8 11.69 8 9.38 8 7 C5.36 7 2.72 7 0 7 C0 4.69 0 2.38 0 0 Z " fill="#3B97C4" transform="translate(120,73)"/>
<path d="M0 0 C0.33 0.66 0.66 1.32 1 2 C1.66 2 2.32 2 3 2 C3 1.34 3 0.68 3 0 C5.31 0 7.62 0 10 0 C10.33 2.97 10.66 5.94 11 9 C12.98 8.67 14.96 8.34 17 8 C17.99 10.64 18.98 13.28 20 16 C20.66 16 21.32 16 22 16 C22 16.66 22 17.32 22 18 C22.61230469 18.07347656 23.22460938 18.14695312 23.85546875 18.22265625 C26 19 26 19 27.30078125 20.99609375 C27.63464844 21.80175781 27.96851562 22.60742188 28.3125 23.4375 C28.65925781 24.24058594 29.00601563 25.04367188 29.36328125 25.87109375 C30 28 30 28 29 30 C28.24976562 29.154375 27.49953125 28.30875 26.7265625 27.4375 C18.3756316 18.1367262 9.80661208 10.40391827 -1 4 C-0.67 2.68 -0.34 1.36 0 0 Z " fill="#8074C9" transform="translate(46,96)"/>
<path d="M0 0 C-2.91777427 3.13850424 -5.90687226 5.3392815 -9.5625 7.5625 C-13.36721402 9.85112582 -13.36721402 9.85112582 -16.703125 12.734375 C-17.13109375 13.15203125 -17.5590625 13.5696875 -18 14 C-20.1875 13.6875 -20.1875 13.6875 -22 13 C-22.66 14.32 -23.32 15.64 -24 17 C-24.66 17 -25.32 17 -26 17 C-26 13.7 -26 10.4 -26 7 C-24.68 7.33 -23.36 7.66 -22 8 C-21.67 7.67 -21.34 7.34 -21 7 C-18.67182036 6.63239269 -16.3381615 6.29758419 -14 6 C-14 5.01 -14 4.02 -14 3 C-13.34 2.34 -12.68 1.68 -12 1 C-12 0.34 -12 -0.32 -12 -1 C-7.28400182 -1.92470553 -4.32734391 -2.22923777 0 0 Z " fill="#3192CE" transform="translate(138,97)"/>
<path d="M0 0 C0.66 0 1.32 0 2 0 C4.11161731 15.74487472 4.11161731 15.74487472 5 23 C4.34 22.34 3.68 21.68 3 21 C3 19.68 3 18.36 3 17 C1.68 17 0.36 17 -1 17 C-1.02578125 17.70125 -1.0515625 18.4025 -1.078125 19.125 C-1.46947027 25.67113914 -2.5425044 30.43161236 -6 36 C-6.35707031 36.60199219 -6.71414062 37.20398437 -7.08203125 37.82421875 C-8.125 39.5 -8.125 39.5 -10 42 C-10.66 42 -11.32 42 -12 42 C-12.33 42.66 -12.66 43.32 -13 44 C-13.33 43.34 -13.66 42.68 -14 42 C-13.03948385 40.48097286 -12.00168721 39.01078875 -10.9375 37.5625 C-3.77346101 26.65133841 -0.0519545 13.01460211 0 0 Z " fill="#7180B9" transform="translate(89,11)"/>
<path d="M0 0 C4.99450259 0.6853655 9.5967594 2.02015651 14.375 3.5625 C15.11105469 3.79646484 15.84710938 4.03042969 16.60546875 4.27148438 C18.40481238 4.8440028 20.20257277 5.42149314 22 6 C22 6.66 22 7.32 22 8 C19.54285453 8.83698386 17.08441143 9.66972424 14.625 10.5 C13.92632812 10.73847656 13.22765625 10.97695312 12.5078125 11.22265625 C7.2265625 13 7.2265625 13 5 13 C5.33 11.68 5.66 10.36 6 9 C7.32 9 8.64 9 10 9 C9.34 8.01 8.68 7.02 8 6 C7.67 6.33 7.34 6.66 7 7 C5.33382885 7.04063832 3.66611905 7.042721 2 7 C2 6.34 2 5.68 2 5 C0.35 5 -1.3 5 -3 5 C-2.01 3.35 -1.02 1.7 0 0 Z " fill="#199FDE" transform="translate(134,83)"/>
<path d="M0 0 C1.32 0 2.64 0 4 0 C4.28875 0.763125 4.5775 1.52625 4.875 2.3125 C5.96269013 5.15029308 5.96269013 5.15029308 8 8 C8.9278329 9.81734823 9.82093501 11.65265228 10.6875 13.5 C11.14511719 14.4590625 11.60273437 15.418125 12.07421875 16.40625 C13 19 13 19 12 22 C12 21.34 12 20.68 12 20 C11.34 19.67 10.68 19.34 10 19 C10 18.01 10 17.02 10 16 C9.34 16 8.68 16 8 16 C7.34 14.68 6.68 13.36 6 12 C4.02 12 2.04 12 0 12 C0 13.98 0 15.96 0 18 C-0.66 18.33 -1.32 18.66 -2 19 C-3.29384979 14.51865271 -2.61333104 11.18505684 -1.5625 6.6875 C-1.13130859 4.80611328 -1.13130859 4.80611328 -0.69140625 2.88671875 C-0.46324219 1.93410156 -0.23507813 0.98148438 0 0 Z " fill="#627DCB" transform="translate(88,28)"/>
<path d="M0 0 C0 3.63 0 7.26 0 11 C-1.423125 10.9690625 -1.423125 10.9690625 -2.875 10.9375 C-5.90666283 10.77448174 -5.90666283 10.77448174 -8 12 C-8.40729228 14.32156597 -8.74438677 16.6568787 -9 19 C-10.98 18.67 -12.96 18.34 -15 18 C-15 17.01 -15 16.02 -15 15 C-14.01 15 -13.02 15 -12 15 C-11.9175 14.2575 -11.835 13.515 -11.75 12.75 C-10.84717548 9.43964342 -9.43029893 8.35665351 -7 6 C-6.30686092 4.34416775 -5.63525576 2.67889021 -5 1 C-3 0 -3 0 0 0 Z M-5 7 C-5 7.66 -5 8.32 -5 9 C-4.34 8.67 -3.68 8.34 -3 8 C-3.66 7.67 -4.32 7.34 -5 7 Z " fill="#6B77C8" transform="translate(80,53)"/>
<path d="M0 0 C0.33 0.66 0.66 1.32 1 2 C1.99 1.67 2.98 1.34 4 1 C4.66 3.97 5.32 6.94 6 10 C6.99 10 7.98 10 9 10 C9.66 10 10.32 10 11 10 C10.40984815 15.50808397 9.43336231 20.64878069 8 26 C7.34 26 6.68 26 6 26 C6 23.36 6 20.72 6 18 C5.34 18 4.68 18 4 18 C3.32873871 15.5636811 2.66283646 13.12611117 2 10.6875 C1.71382813 9.65206055 1.71382813 9.65206055 1.421875 8.59570312 C0.62283816 5.64212051 0 3.07440781 0 0 Z " fill="#3C8FD7" transform="translate(83,131)"/>
<path d="M0 0 C1.875 0.25 1.875 0.25 4 1 C4.309375 1.66 4.61875 2.32 4.9375 3 C5.288125 3.66 5.63875 4.32 6 5 C8.55519921 5.81171228 8.55519921 5.81171228 11 6 C11 6.99 11 7.98 11 9 C13.33517159 9.75059087 14.66228886 10.09210304 17.0625 9.4375 C18.0215625 9.2209375 18.0215625 9.2209375 19 9 C19.99 9.66 20.98 10.32 22 11 C21.34 11.66 20.68 12.32 20 13 C20.3185177 15.10820797 20.3185177 15.10820797 21 17 C13.06022864 14.19518947 5.46319688 8.40512737 0 2 C0 1.34 0 0.68 0 0 Z " fill="#E1F6FB" transform="translate(114,63)"/>
<path d="M0 0 C1.485 0.99 1.485 0.99 3 2 C3 3.32 3 4.64 3 6 C3.66 6 4.32 6 5 6 C5.0825 6.5775 5.165 7.155 5.25 7.75 C5.84426072 10.14785374 5.84426072 10.14785374 7.9375 11.75 C11.3846433 15.51051996 11.91713852 20.01132442 12.125 25 C12.08375 25.66 12.0425 26.32 12 27 C12.66 27 13.32 27 14 27 C14 29.64 14 32.28 14 35 C12.1680627 32.25209404 11.58724327 30.78127348 10.8125 27.6875 C8.6064831 19.96644087 4.70392085 12.81663071 0.78515625 5.8359375 C0 4 0 4 0 0 Z " fill="#4F8AC4" transform="translate(75,122)"/>
<path d="M0 0 C2.46278801 2.46278801 2.99771255 4.70676982 4 8 C4.66 8 5.32 8 6 8 C6 8.66 6 9.32 6 10 C6.61230469 10.07347656 7.22460938 10.14695312 7.85546875 10.22265625 C10 11 10 11 11.30078125 12.99609375 C11.63464844 13.80175781 11.96851562 14.60742188 12.3125 15.4375 C12.65925781 16.24058594 13.00601563 17.04367188 13.36328125 17.87109375 C14 20 14 20 13 22 C12.16855469 21.09636719 11.33710937 20.19273438 10.48046875 19.26171875 C9.38284577 18.07028184 8.28518768 16.87887729 7.1875 15.6875 C6.64029297 15.09259766 6.09308594 14.49769531 5.52929688 13.88476562 C4.99755859 13.30791016 4.46582031 12.73105469 3.91796875 12.13671875 C3.43094482 11.60780029 2.9439209 11.07888184 2.44213867 10.53393555 C1.45656912 9.48563125 0.43308703 8.47204894 -0.61987305 7.49145508 C-2 6 -2 6 -3 3 C-3.66 2.34 -4.32 1.68 -5 1 C-2.625 0.375 -2.625 0.375 0 0 Z " fill="#637CB4" transform="translate(62,104)"/>
<path d="M0 0 C4.28664705 0.61696869 8.20573729 1.63609346 12.3125 3 C16.30503075 4.26993541 20.01238551 5.26018417 24.1875 5.625 C28 6 28 6 30 8 C29.10539062 8.12117188 28.21078125 8.24234375 27.2890625 8.3671875 C20.13728469 9.35837206 13.05733138 10.47145357 6 12 C8.42130331 9.57869669 9.80111377 9.47159496 13.125 8.875 C14.49011719 8.62363281 14.49011719 8.62363281 15.8828125 8.3671875 C16.58148438 8.24601562 17.28015625 8.12484375 18 8 C18 7.34 18 6.68 18 6 C16.88625 5.9175 15.7725 5.835 14.625 5.75 C9.3848781 5.12080974 4.79758766 3.11369129 0 1 C0 0.67 0 0.34 0 0 Z " fill="#3C95C1" transform="translate(138,83)"/>
<path d="M0 0 C0.33 0.66 0.66 1.32 1 2 C0.30549095 4.06887505 -0.48145857 6.10709095 -1.3125 8.125 C-4.61122198 16.4494757 -6.30466199 24.07039603 -7 33 C-7.66 33 -8.32 33 -9 33 C-9 29.37 -9 25.74 -9 22 C-8.34 22 -7.68 22 -7 22 C-6.27945952 16.33861055 -5.61726196 10.67355671 -5 5 C-3.68 4.67 -2.36 4.34 -1 4 C-0.67 2.68 -0.34 1.36 0 0 Z " fill="#4E8EC0" transform="translate(98,135)"/>
<path d="M0 0 C4.29 0 8.58 0 13 0 C13 0.66 13 1.32 13 2 C13.66 2 14.32 2 15 2 C14.125 5.875 14.125 5.875 13 7 C10.80949979 6.90982004 8.621534 6.75333792 6.4375 6.5625 C5.23996094 6.46066406 4.04242188 6.35882813 2.80859375 6.25390625 C1.88175781 6.17011719 0.95492187 6.08632812 0 6 C4.03292745 3.7655402 7.44967434 3.45503257 12 3 C6.06 2.01 6.06 2.01 0 1 C0 0.67 0 0.34 0 0 Z " fill="#D7F5FC" transform="translate(154,87)"/>
<path d="M0 0 C0.99 0 1.98 0 3 0 C3.268125 1.0725 3.53625 2.145 3.8125 3.25 C4.87631151 6.60940478 5.83366479 8.34131588 8 11 C8 11.66 8 12.32 8 13 C8.928125 13.433125 8.928125 13.433125 9.875 13.875 C12.41591419 15.22018987 13.71125151 16.42250301 15 19 C14.34 19.99 13.68 20.98 13 22 C12.67 21.01 12.34 20.02 12 19 C11.34 19 10.68 19 10 19 C8.3779864 16.80060908 6.89490854 14.61718554 5.4375 12.3125 C5.02564453 11.68666016 4.61378906 11.06082031 4.18945312 10.41601562 C1.98598781 6.9719741 0.45246471 4.15156215 0 0 Z " fill="#E4F4FD" transform="translate(98,40)"/>
<path d="M0 0 C1.0625 1.875 1.0625 1.875 2 4 C1.67 4.66 1.34 5.32 1 6 C0.7218975 9.6020895 0.55267776 13.20396821 0.37890625 16.8125 C0 20 0 20 -2 22 C-2.99 22 -3.98 22 -5 22 C-5 21.34 -5 20.68 -5 20 C-4.34 20 -3.68 20 -3 20 C-3.03480469 19.39414063 -3.06960937 18.78828125 -3.10546875 18.1640625 C-3.31824384 11.57816697 -2.2121768 6.18882796 0 0 Z " fill="#DEF5FB" transform="translate(94,148)"/>
<path d="M0 0 C-0.2734375 1.921875 -0.2734375 1.921875 -1 4 C-2.93191029 4.66617596 -4.86597866 5.32702711 -6.8125 5.94921875 C-10.20521503 7.57893365 -12.01323469 10.29603542 -14.32421875 13.19140625 C-16.5726913 15.61807943 -18.79260592 16.37416701 -22 17 C-17.58408983 11.23478395 -7.86550608 0 0 0 Z " fill="#CFF4FE" transform="translate(134,101)"/>
<path d="M0 0 C0.33 0.99 0.66 1.98 1 3 C-0.61594832 5.04119788 -2.2856382 7.04072937 -4 9 C-4.33 9.99 -4.66 10.98 -5 12 C-6.69783237 13.0121693 -8.40093145 14.01810051 -10.14453125 14.94921875 C-12.65387992 16.37030252 -14.80584748 18.13829483 -17 20 C-17 17 -17 17 -15.05859375 15.01953125 C-13.76115234 13.92705078 -13.76115234 13.92705078 -12.4375 12.8125 C-7.86054234 8.84102892 -3.84649504 4.67438304 0 0 Z " fill="#7A7FB3" transform="translate(73,56)"/>
<path d="M0 0 C0.6875 1.5625 0.6875 1.5625 1 4 C0.0355414 6.34824702 -0.96514123 8.68191636 -2 11 C-2 12.32 -2 13.64 -2 15 C-2.61875 15.28875 -3.2375 15.5775 -3.875 15.875 C-6.13325765 16.93720042 -6.13325765 16.93720042 -8 19 C-7.44208397 14.34837514 -6.15058199 10.8387436 -4 6.6875 C-3.46375 5.63949219 -2.9275 4.59148437 -2.375 3.51171875 C-1 1 -1 1 0 0 Z " fill="#D9F6FB" transform="translate(103,129)"/>
<path d="M0 0 C3.61711851 0.55708333 4.94146207 1.72861017 7.1875 4.5625 C11.04965626 9.20548351 15.41251909 13.08867841 20 17 C19.34 17.33 18.68 17.66 18 18 C12.72666685 15.76494489 9.21465239 12.46321699 6.1640625 7.7109375 C4.97755217 5.96700621 3.70165817 4.58840426 2.1875 3.125 C1.465625 2.42375 0.74375 1.7225 0 1 C0 0.67 0 0.34 0 0 Z " fill="#4E89B9" transform="translate(106,58)"/>
<path d="M0 0 C2.64 0 5.28 0 8 0 C8 0.66 8 1.32 8 2 C9.65 1.67 11.3 1.34 13 1 C13.66 2.98 14.32 4.96 15 7 C4.11971831 4.02112676 4.11971831 4.02112676 0 1 C0 0.67 0 0.34 0 0 Z " fill="#E5F8F7" transform="translate(136,80)"/>
<path d="M0 0 C1.63814448 2.45721672 2.61952199 4.34567811 3.625 7.0625 C3.88539062 7.75472656 4.14578125 8.44695312 4.4140625 9.16015625 C5 11 5 11 5 13 C1.82655696 12.08137175 0.35173277 11.61971964 -1.3125 8.6875 C-2.00035836 5.99859913 -2.15782426 3.76192463 -2 1 C-1.34 0.67 -0.68 0.34 0 0 Z " fill="#E8F5F7" transform="translate(82,139)"/>
<path d="M0 0 C-1.11375 0.2475 -2.2275 0.495 -3.375 0.75 C-7.04615198 1.61005339 -7.04615198 1.61005339 -8.4375 4.125 C-8.623125 4.74375 -8.80875 5.3625 -9 6 C-10.32 6 -11.64 6 -13 6 C-13 3 -13 3 -11 1 C-11 0.34 -11 -0.32 -11 -1 C-3.57142857 -2.42857143 -3.57142857 -2.42857143 0 0 Z " fill="#209CE2" transform="translate(137,97)"/>
<path d="M0 0 C2.31 0 4.62 0 7 0 C7.33 0.99 7.66 1.98 8 3 C10.01508358 3.73323796 10.01508358 3.73323796 12 4 C12 4.99 12 5.98 12 7 C12.99 7.33 13.98 7.66 15 8 C14.67 8.99 14.34 9.98 14 11 C4.58997722 3.70159453 4.58997722 3.70159453 0 0 Z " fill="#7A7FB9" transform="translate(45,99)"/>
<path d="M0 0 C3.40312738 1.05875074 6.01353231 2.00902154 9 4 C8.67 4.99 8.34 5.98 8 7 C5.36 7 2.72 7 0 7 C0 4.69 0 2.38 0 0 Z " fill="#4097D3" transform="translate(120,73)"/>
<path d="M0 0 C1.485 0.99 1.485 0.99 3 2 C3 3.32 3 4.64 3 6 C3.66 6 4.32 6 5 6 C5.12375 6.639375 5.2475 7.27875 5.375 7.9375 C5.58125 8.618125 5.7875 9.29875 6 10 C6.66 10.33 7.32 10.66 8 11 C7.67 12.65 7.34 14.3 7 16 C3.04961337 11.25953605 0 6.21355834 0 0 Z " fill="#628FC8" transform="translate(75,122)"/>
<path d="M0 0 C0.66 0 1.32 0 2 0 C0.38462556 3.89917968 -2.27924873 6.71293772 -5.125 9.75 C-5.59292969 10.25660156 -6.06085938 10.76320313 -6.54296875 11.28515625 C-7.69126541 12.52719141 -8.84508672 13.76411494 -10 15 C-10 11.65296304 -9.32173209 10.28175754 -7.75 7.375 C-7.33234375 6.57835938 -6.9146875 5.78171875 -6.484375 4.9609375 C-4.72400065 2.63539034 -3.7818163 2.51727989 -1 2 C-0.67 1.34 -0.34 0.68 0 0 Z " fill="#3885B8" transform="translate(116,110)"/>
<path d="M0 0 C-2.475 4.455 -2.475 4.455 -5 9 C-5.66 8.34 -6.32 7.68 -7 7 C-6.75 3.4375 -6.75 3.4375 -6 0 C-4 -1 -4 -1 0 0 Z " fill="#3A91E1" transform="translate(102,129)"/>
<path d="M0 0 C0.99 0.66 1.98 1.32 3 2 C2.21625 3.051875 1.4325 4.10375 0.625 5.1875 C-1.40508579 8.01696802 -2.89112979 10.67338936 -4 14 C-5.33623836 9.99128491 -4.38227053 7.93947102 -3 4 C-1.375 1.5625 -1.375 1.5625 0 0 Z " fill="#3A91D1" transform="translate(108,114)"/>
<path d="M0 0 C1.91635217 -0.05423638 3.83314925 -0.09289963 5.75 -0.125 C7.35101563 -0.15980469 7.35101563 -0.15980469 8.984375 -0.1953125 C11.92470106 -0.00487687 13.52361878 0.47329896 16 2 C16 2.33 16 2.66 16 3 C10.72 2.67 5.44 2.34 0 2 C0 1.34 0 0.68 0 0 Z " fill="#9783AA" transform="translate(11,89)"/>
<path d="M0 0 C5.75 0.75 5.75 0.75 8 3 C4.36576791 5.32590854 1.22911669 5.16265833 -3 5 C-2.01 3.35 -1.02 1.7 0 0 Z " fill="#229BE1" transform="translate(134,83)"/>
<path d="M0 0 C0.37254569 3.35291118 0.31050198 4.6038423 -1.8125 7.3125 C-4 9 -4 9 -7 9 C-6.67 7.68 -6.34 6.36 -6 5 C-5.34 5 -4.68 5 -4 5 C-3.87625 4.360625 -3.7525 3.72125 -3.625 3.0625 C-3.41875 2.381875 -3.2125 1.70125 -3 1 C-1 0 -1 0 0 0 Z " fill="#FCFBEE" transform="translate(112,123)"/>
<path d="M0 0 C0.66 0 1.32 0 2 0 C2.33 4.95 2.66 9.9 3 15 C0 12 0 12 -0.29296875 9.08203125 C-0.25816406 8.00308594 -0.22335938 6.92414062 -0.1875 5.8125 C-0.16042969 4.72582031 -0.13335937 3.63914062 -0.10546875 2.51953125 C-0.07066406 1.68808594 -0.03585938 0.85664063 0 0 Z " fill="#898EB2" transform="translate(89,11)"/>
<path d="M0 0 C2.67503619 2.67503619 3.76326199 4.17148208 5.25 7.5 C5.60578125 8.2734375 5.9615625 9.046875 6.328125 9.84375 C7 12 7 12 6 15 C6 14.34 6 13.68 6 13 C5.34 12.67 4.68 12.34 4 12 C4 11.01 4 10.02 4 9 C3.34 9 2.68 9 2 9 C1.34 6.03 0.68 3.06 0 0 Z " fill="#5F7CB5" transform="translate(94,35)"/>
<path d="M0 0 C0 0.99 0 1.98 0 3 C-5.29230769 5.21538462 -5.29230769 5.21538462 -8.875 4.125 C-9.57625 3.75375 -10.2775 3.3825 -11 3 C-11 2.67 -11 2.34 -11 2 C-9.5422647 1.664061 -8.08378894 1.33133376 -6.625 1 C-5.40683594 0.7215625 -5.40683594 0.7215625 -4.1640625 0.4375 C-2 0 -2 0 0 0 Z " fill="#9276B5" transform="translate(32,86)"/>
<path d="M0 0 C4 4.75 4 4.75 4 7 C1.36 6.67 -1.28 6.34 -4 6 C-4 5.01 -4 4.02 -4 3 C-2.68 2.67 -1.36 2.34 0 2 C0 1.34 0 0.68 0 0 Z " fill="#5386C3" transform="translate(101,48)"/>
<path d="M0 0 C0.99 0.33 1.98 0.66 3 1 C3 1.66 3 2.32 3 3 C3.66 3 4.32 3 5 3 C5.33 5.64 5.66 8.28 6 11 C5.34 10.34 4.68 9.68 4 9 C4 7.68 4 6.36 4 5 C2.68 5 1.36 5 0 5 C0 3.35 0 1.7 0 0 Z " fill="#687AB7" transform="translate(88,23)"/>
<path d="M0 0 C1 3 1 3 0.22265625 4.82421875 C-0.8515625 6.54947917 -1.92578125 8.27473958 -3 10 C-4.32 9.67 -5.64 9.34 -7 9 C-4.69 6.03 -2.38 3.06 0 0 Z " fill="#CCF1FC" transform="translate(111,118)"/>
<path d="M0 0 C0.66 0.66 1.32 1.32 2 2 C-0.97 4.475 -0.97 4.475 -4 7 C-4.66 5.68 -5.32 4.36 -6 3 C-3.86437246 0.86437246 -2.93453261 0.36681658 0 0 Z " fill="#F2F1F9" transform="translate(70,57)"/>
<path d="M0 0 C0.99 0 1.98 0 3 0 C3 3.96 3 7.92 3 12 C0.97649676 8.96474514 0.67875982 7.80573798 0.375 4.3125 C0.30023438 3.50425781 0.22546875 2.69601563 0.1484375 1.86328125 C0.09945312 1.24839844 0.05046875 0.63351563 0 0 Z " fill="#EBF0FD" transform="translate(91,17)"/>
<path d="M0 0 C7.50769231 0.61538462 7.50769231 0.61538462 10 2.5625 C10.33 3.036875 10.66 3.51125 11 4 C9.4375 4.75 9.4375 4.75 7 5 C4.49713591 3.86915563 2.32992278 2.47860484 0 1 C0 0.67 0 0.34 0 0 Z " fill="#7F70AF" transform="translate(35,94)"/>
<path d="M0 0 C1.5 1.375 1.5 1.375 3 3 C3 3.66 3 4.32 3 5 C2.34 5 1.68 5 1 5 C1 5.66 1 6.32 1 7 C0.34 7 -0.32 7 -1 7 C-1 6.34 -1 5.68 -1 5 C-1.66 5 -2.32 5 -3 5 C-3 4.34 -3 3.68 -3 3 C-3.66 2.67 -4.32 2.34 -5 2 C-3.35 1.34 -1.7 0.68 0 0 Z " fill="#8D79C1" transform="translate(45,80)"/>
<path d="M0 0 C1.32 0.66 2.64 1.32 4 2 C1.25 6.875 1.25 6.875 -1 8 C-1.04241723 5.66705225 -1.04092937 3.33297433 -1 1 C-0.67 0.67 -0.34 0.34 0 0 Z " fill="#289AD8" transform="translate(129,79)"/>
<path d="M0 0 C0.66 0.33 1.32 0.66 2 1 C0.01219635 3.98170547 -1.56237816 5.81831749 -5 7 C-5.99 6.67 -6.98 6.34 -8 6 C-7.34 6 -6.68 6 -6 6 C-5.7525 5.38125 -5.505 4.7625 -5.25 4.125 C-3.78043163 1.62673377 -2.71435596 0.93305986 0 0 Z " fill="#8173AE" transform="translate(52,76)"/>
<path d="M0 0 C4.75 0.75 4.75 0.75 7 3 C7.33 3.66 7.66 4.32 8 5 C7.01 6.485 7.01 6.485 6 8 C5.67 7.01 5.34 6.02 5 5 C4.34 5 3.68 5 3 5 C1.375 2.5 1.375 2.5 0 0 Z " fill="#DCEFF9" transform="translate(105,54)"/>
<path d="M0 0 C2.25245881 2.68841859 3.88213958 4.64641875 5 8 C4.01 8 3.02 8 2 8 C0.25 5.6875 0.25 5.6875 -1 3 C-0.67 2.01 -0.34 1.02 0 0 Z " fill="#E5F7FE" transform="translate(75,127)"/>
<path d="M0 0 C2.5654594 2.5654594 2.54046087 4.47686668 3 8 C2.34 7.67 1.68 7.34 1 7 C1 6.34 1 5.68 1 5 C0.38125 4.71125 -0.2375 4.4225 -0.875 4.125 C-3 3 -3 3 -5 1 C-2.625 0.375 -2.625 0.375 0 0 Z " fill="#6B7CCE" transform="translate(62,104)"/>
<path d="M0 0 C-0.99 0.495 -0.99 0.495 -2 1 C-1.34 1.66 -0.68 2.32 0 3 C-4.75 4.125 -4.75 4.125 -7 3 C-7 2.01 -7 1.02 -7 0 C-3.98968256 -0.93423645 -3.13349732 -1.04449911 0 0 Z " fill="#916BC1" transform="translate(39,87)"/>
<path d="M0 0 C2.89696854 0.36982577 5.37621929 0.68810965 8 2 C8 2.66 8 3.32 8 4 C2.46153846 4.36923077 2.46153846 4.36923077 0.125 2.5 C-0.24625 2.005 -0.6175 1.51 -1 1 C-0.67 0.67 -0.34 0.34 0 0 Z " fill="#F1EEF9" transform="translate(39,98)"/>
<path d="M0 0 C0.99 0.33 1.98 0.66 3 1 C-1.455 4.465 -1.455 4.465 -6 8 C-6 7.01 -6 6.02 -6 5 C-3.1875 2.25 -3.1875 2.25 0 0 Z " fill="#7874A8" transform="translate(62,68)"/>
<path d="M0 0 C-2.17424117 2.50037734 -3.73045798 3.43628586 -7 4 C-7 3.34 -7 2.68 -7 2 C-7.66 1.67 -8.32 1.34 -9 1 C-5.8035914 -0.06546953 -3.34252724 -0.07427838 0 0 Z " fill="#F5EDFC" transform="translate(39,82)"/>
<path d="M0 0 C1.65 0 3.3 0 5 0 C4.6875 1.875 4.6875 1.875 4 4 C3.01 4.66 2.02 5.32 1 6 C0 1.125 0 1.125 0 0 Z " fill="#F6F2FA" transform="translate(58,65)"/>
<path d="M0 0 C0.66 1.32 1.32 2.64 2 4 C0.68 5.65 -0.64 7.3 -2 9 C-2.66 8.34 -3.32 7.68 -4 7 C-2.68 4.69 -1.36 2.38 0 0 Z " fill="#EDF1FA" transform="translate(76,46)"/>
<path d="M0 0 C2.22825644 2.22825644 2.69239369 3.65761628 3.625 6.625 C3.88539062 7.44226563 4.14578125 8.25953125 4.4140625 9.1015625 C4.60742188 9.72804688 4.80078125 10.35453125 5 11 C2.28076157 9.33336999 1.14774579 8.60575772 0.375 5.4375 C0.25125 4.633125 0.1275 3.82875 0 3 C-0.66 2.34 -1.32 1.68 -2 1 C-1.34 0.67 -0.68 0.34 0 0 Z " fill="#5B82BC" transform="translate(71,115)"/>
<path d="M0 0 C1.32 0 2.64 0 4 0 C4 1.98 4 3.96 4 6 C3.01 5.67 2.02 5.34 1 5 C1 4.01 1 3.02 1 2 C0.34 1.67 -0.32 1.34 -1 1 C-0.67 0.67 -0.34 0.34 0 0 Z " fill="#7272C5" transform="translate(52,96)"/>
<path d="M0 0 C2.64 0 5.28 0 8 0 C8.66 1.32 9.32 2.64 10 4 C6.7 3.01 3.4 2.02 0 1 C0 0.67 0 0.34 0 0 Z " fill="#C6ECFB" transform="translate(141,83)"/>
<path d="M0 0 C0.33 0 0.66 0 1 0 C1 1.98 1 3.96 1 6 C0.01 6.33 -0.98 6.66 -2 7 C-2.33 7.66 -2.66 8.32 -3 9 C-3.33 8.34 -3.66 7.68 -4 7 C-3.22265625 5.2734375 -3.22265625 5.2734375 -2.0625 3.375 C-1.381875 2.26125 -0.70125 1.1475 0 0 Z " fill="#7A87B5" transform="translate(79,46)"/>
<path d="M0 0 C2.64 0 5.28 0 8 0 C6.68 0.33 5.36 0.66 4 1 C4 1.66 4 2.32 4 3 C2.35 3.33 0.7 3.66 -1 4 C-0.67 2.68 -0.34 1.36 0 0 Z " fill="#2699D8" transform="translate(117,104)"/>
<path d="M0 0 C2.31 0.33 4.62 0.66 7 1 C7 1.66 7 2.32 7 3 C4.36 3 1.72 3 -1 3 C-0.67 2.01 -0.34 1.02 0 0 Z " fill="#2B97E2" transform="translate(121,77)"/>
<path d="M0 0 C0.99 0.33 1.98 0.66 3 1 C3 2.32 3 3.64 3 5 C1.68 5 0.36 5 -1 5 C-0.67 3.35 -0.34 1.7 0 0 Z " fill="#438ADB" transform="translate(105,59)"/>
<path d="M0 0 C1.70884005 1.62339805 3.37446717 3.29319053 5 5 C5 5.66 5 6.32 5 7 C4.01 7 3.02 7 2 7 C0 4 0 4 0 0 Z " fill="#DDEBF8" transform="translate(70,120)"/>
<path d="M0 0 C-0.33 1.32 -0.66 2.64 -1 4 C-2.65 4.33 -4.3 4.66 -6 5 C-3.74193548 0 -3.74193548 0 0 0 Z " fill="#DBFAFE" transform="translate(134,101)"/>
<path d="M0 0 C2.31 0 4.62 0 7 0 C7.33 1.32 7.66 2.64 8 4 C4.31245243 3.50168276 2.39509338 2.89932357 0 0 Z " fill="#776EAF" transform="translate(45,99)"/>
</svg>
